# xmcd
#
# Track frame offsets:
#	150
#	15705
#	31332
#	51175
#	76658
#	96798
#	117912
#	131982
#	155977
#	172116
#	189502
#	210880
#	242465
#
# Disc length: 3531 seconds
#
# Revision: 0
# Processed by: cddbd v1.5.2PL0 Copyright (c) Steve Scherf et al.
# Submitted via: EasyCDDAExtractor 10.0.6.1
#
DISCID=a70dc90d
DTITLE=Thunderbridge Bluegrass Boys - The Moon Shines Still
DYEAR=2007
DGENRE=Bluegrass
TTITLE0=Before I Die
TTITLE1=Tallulah
TTITLE2=I Still Carry You Around
TTITLE3=Willow Tree Hill
TTITLE4=Roll In My Sweet Baby's Arms
TTITLE5=Feels Like Home
TTITLE6=Fireball Mail
TTITLE7=Carolina Calling
TTITLE8=Rocky Top
TTITLE9=In The Sweet Bye and Bye
TTITLE10=New Train Song
TTITLE11=Man Of Constant Sorrow (live)
TTITLE12=Salty Dog Blues
EXTD=
EXTT0=
EXTT1=
EXTT2=
EXTT3=
EXTT4=
EXTT5=
EXTT6=
EXTT7=
EXTT8=
EXTT9=
EXTT10=
EXTT11=
EXTT12=
PLAYORDER=
